<?xml version="1.0" encoding="utf-8"?>
<!-- Generator: Adobe Illustrator 27.5.0, SVG Export Plug-In . SVG Version: 6.00 Build 0)  -->
<svg version="1.1" id="Layer_1" xmlns="http://www.w3.org/2000/svg" xmlns:xlink="http://www.w3.org/1999/xlink" x="0px" y="0px"
	 viewBox="0 0 55.81 30.45" style="enable-background:new 0 0 55.81 30.45;" xml:space="preserve">
<style type="text/css">
	.st0{fill:#13213C;}
	.st1{fill:#FFFFFF;}
	.st2{fill:#FAA31B;}
</style>
<rect class="st0" width="55.81" height="30.45"/>
<g>
	<g>
		<path class="st1" d="M1.05,30.45c-0.18,0-0.35,0-0.53,0s-0.35,0-0.52-0.01v-6.63c0.21-0.01,0.42-0.01,0.63-0.01s0.42,0,0.62,0
			c0.21,0,0.42,0,0.63,0s0.42,0,0.62,0.01c0.65,0.01,1.22,0.14,1.69,0.39c0.47,0.26,0.84,0.62,1.1,1.08s0.39,1.02,0.39,1.66
			c0,0.7-0.15,1.31-0.45,1.83c-0.3,0.52-0.72,0.93-1.26,1.21c-0.54,0.29-1.17,0.44-1.9,0.45c-0.17,0.01-0.34,0.01-0.52,0.01
			S1.22,30.45,1.05,30.45z M1.43,29.18h0.64c0.67,0,1.19-0.2,1.57-0.59c0.38-0.39,0.57-0.93,0.57-1.61c0-0.62-0.16-1.09-0.49-1.42
			s-0.8-0.5-1.41-0.5H1.43V29.18z"/>
		<path class="st1" d="M6.01,30.44l2.41-6.63h1.72l2.44,6.63h-1.48l-0.53-1.51H7.98l-0.5,1.51H6.01z M8.4,27.69h1.75l-0.89-2.54
			L8.4,27.69z"/>
		<path class="st1" d="M13.35,30.44v-6.63h1.43v2.57l2.15-2.57h1.71l-2.71,3.15l2.57,3.48h-1.74l-1.98-2.68v2.68H13.35z"/>
		<path class="st1" d="M21.11,30.44l-2.23-6.63h1.58l1.56,5.06l1.55-5.06h1.47l-2.22,6.63H21.11z"/>
		<path class="st1" d="M25.93,30.44v-6.63h1.43v6.63H25.93z"/>
		<path class="st1" d="M30.57,30.44c-0.39,0-0.76-0.04-1.1-0.13c-0.35-0.08-0.64-0.2-0.88-0.34l0.12-1.31
			c0.3,0.18,0.61,0.32,0.93,0.43c0.33,0.1,0.63,0.15,0.91,0.15c0.32,0,0.57-0.07,0.77-0.2c0.2-0.13,0.3-0.3,0.3-0.52
			c0-0.16-0.05-0.28-0.15-0.37c-0.1-0.09-0.23-0.16-0.39-0.23c-0.16-0.07-0.33-0.14-0.52-0.21c-0.22-0.09-0.44-0.19-0.67-0.28
			c-0.23-0.1-0.44-0.22-0.63-0.36c-0.19-0.14-0.35-0.32-0.47-0.54s-0.18-0.5-0.18-0.84c0-0.62,0.21-1.11,0.64-1.47
			c0.43-0.36,1.03-0.54,1.79-0.54c0.59,0,1.18,0.12,1.78,0.35l-0.22,1.29c-0.24-0.14-0.51-0.24-0.79-0.32
			c-0.28-0.08-0.55-0.12-0.8-0.12c-0.31,0-0.55,0.06-0.72,0.18c-0.17,0.12-0.26,0.28-0.26,0.48c0,0.19,0.07,0.33,0.21,0.43
			c0.14,0.1,0.32,0.2,0.54,0.29c0.22,0.09,0.46,0.18,0.72,0.28c0.26,0.09,0.51,0.21,0.74,0.36c0.23,0.15,0.43,0.34,0.58,0.59
			c0.15,0.24,0.23,0.56,0.23,0.94c0,0.63-0.22,1.12-0.65,1.47C31.96,30.26,31.35,30.44,30.57,30.44z"/>
		<path class="st1" d="M34.26,30.44v-6.63h1.43v6.63H34.26z"/>
		<path class="st1" d="M40.13,30.44c-0.65,0-1.22-0.14-1.72-0.42c-0.49-0.28-0.87-0.67-1.15-1.18c-0.27-0.5-0.41-1.09-0.41-1.75
			c0-0.68,0.14-1.27,0.41-1.77c0.27-0.5,0.66-0.89,1.15-1.17c0.49-0.28,1.06-0.42,1.72-0.42c0.65,0,1.22,0.14,1.72,0.41
			c0.49,0.28,0.87,0.66,1.14,1.16c0.27,0.5,0.41,1.08,0.41,1.74c0,0.68-0.13,1.27-0.41,1.78s-0.65,0.9-1.14,1.19
			C41.36,30.29,40.79,30.44,40.13,30.44z M40.13,29.3c0.55,0,0.98-0.2,1.31-0.59s0.48-0.91,0.48-1.56c0-0.43-0.07-0.81-0.22-1.13
			s-0.36-0.58-0.63-0.76C40.8,25.08,40.49,25,40.13,25c-0.36-0.01-0.67,0.08-0.93,0.26c-0.27,0.18-0.48,0.43-0.63,0.76
			s-0.23,0.7-0.23,1.13c0,0.43,0.07,0.81,0.22,1.13c0.15,0.32,0.36,0.57,0.63,0.75C39.46,29.21,39.78,29.3,40.13,29.3z"/>
		<path class="st1" d="M44.48,30.44v-6.63h1.68l2.73,4.65v-4.65h1.31v6.63h-1.66l-2.75-4.68v4.68H44.48z"/>
		<path class="st1" d="M53.33,30.44c-0.39,0-0.76-0.04-1.1-0.13c-0.35-0.08-0.64-0.2-0.88-0.34l0.12-1.31
			c0.3,0.18,0.61,0.32,0.93,0.43c0.33,0.1,0.63,0.15,0.91,0.15c0.32,0,0.57-0.07,0.77-0.2c0.2-0.13,0.3-0.3,0.3-0.52
			c0-0.16-0.05-0.28-0.15-0.37c-0.1-0.09-0.23-0.16-0.39-0.23c-0.16-0.07-0.33-0.14-0.52-0.21c-0.22-0.09-0.44-0.19-0.67-0.28
			c-0.23-0.1-0.44-0.22-0.63-0.36c-0.19-0.14-0.35-0.32-0.47-0.54s-0.18-0.5-0.18-0.84c0-0.62,0.21-1.11,0.64-1.47
			c0.43-0.36,1.03-0.54,1.79-0.54c0.59,0,1.18,0.12,1.78,0.35l-0.22,1.29c-0.24-0.14-0.51-0.24-0.79-0.32
			c-0.28-0.08-0.55-0.12-0.8-0.12c-0.31,0-0.55,0.06-0.72,0.18c-0.17,0.12-0.26,0.28-0.26,0.48c0,0.19,0.07,0.33,0.21,0.43
			c0.14,0.1,0.32,0.2,0.54,0.29c0.22,0.09,0.46,0.18,0.72,0.28c0.26,0.09,0.51,0.21,0.74,0.36c0.23,0.15,0.43,0.34,0.58,0.59
			c0.15,0.24,0.23,0.56,0.23,0.94c0,0.63-0.22,1.12-0.65,1.47C54.73,30.26,54.12,30.44,53.33,30.44z"/>
	</g>
</g>
<polygon class="st1" points="41.19,20.75 32.92,20.75 20.62,8.36 18.39,10.61 8.32,20.74 0,20.74 20.59,0.01 "/>
<polygon class="st2" points="55.81,20.76 48.46,20.74 27.84,0 35.2,0.01 "/>
</svg>
